<?xml version="1.0" standalone="no"?>
<!DOCTYPE svg PUBLIC "-//W3C//DTD SVG 20010904//EN"
 "http://www.w3.org/TR/2001/REC-SVG-20010904/DTD/svg10.dtd">
<svg version="1.0" xmlns="http://www.w3.org/2000/svg"
 width="2500.000000pt" height="2500.000000pt" viewBox="0 0 2500.000000 2500.000000"
 preserveAspectRatio="xMidYMid meet">
<metadata>
Created by potrace 1.14, written by Peter Selinger 2001-2017
</metadata>
<g transform="translate(0.000000,2500.000000) scale(0.100000,-0.100000)"
fill="#000000" stroke="none">
<path d="M12341 24035 c-101 -23 -259 -105 -332 -172 -189 -175 -270 -461
-204 -718 29 -115 81 -202 174 -295 91 -92 140 -124 255 -166 96 -36 289 -45
399 -19 207 48 372 177 459 355 65 134 80 183 85 286 7 120 -14 217 -75 337
-38 76 -61 107 -136 182 -103 102 -185 154 -301 191 -100 32 -233 40 -324 19z"/>
<path d="M18365 23400 c-78 -16 -221 -81 -276 -124 -191 -150 -242 -460 -116
-701 41 -78 137 -174 209 -209 31 -15 105 -37 163 -49 92 -18 117 -19 181 -10
150 22 293 118 389 263 47 71 100 187 110 244 8 40 -39 188 -84 268 -78 137
-210 256 -333 297 -71 24 -184 34 -243 21z"/>
<path d="M6335 23349 c-49 -17 -111 -44 -138 -61 -178 -114 -275 -380 -222
-607 44 -185 169 -313 379 -387 162 -58 386 1 533 140 115 108 163 223 163
391 0 167 -41 266 -160 386 -158 159 -351 207 -555 138z"/>
<path d="M7951 20959 c-246 -38 -503 -220 -615 -437 -70 -137 -98 -255 -98
-417 0 -159 21 -248 89 -385 39 -79 63 -110 138 -186 197 -199 378 -274 629
-261 238 12 450 108 613 280 129 136 193 277 213 472 29 267 -48 484 -239 675
-193 192 -486 296 -730 259z"/>
<path d="M16690 20951 c-206 -44 -387 -159 -492 -313 -103 -153 -160 -326
-161 -493 -1 -233 90 -437 272 -615 106 -103 214 -170 353 -218 92 -32 117
-36 235 -40 154 -5 194 2 307 59 373 186 594 597 521 967 -24 119 -127 320
-211 411 -197 213 -518 307 -824 242z"/>
<path d="M12360 20286 c-222 -47 -429 -156 -585 -311 -126 -125 -201 -247
-252 -412 -25 -82 -27 -101 -27 -273 -1 -218 7 -258 89 -425 65 -133 156 -250
272 -349 100 -85 250 -182 307 -198 25 -7 136 -11 286 -12 231 -1 249 0 320
22 371 117 643 440 701 831 16 110 6 283 -21 381 -29 104 -129 303 -190 377
-122 150 -315 264 -580 343 -123 37 -227 45 -320 26z"/>
<path d="M21702 18620 c-88 -23 -163 -62 -256 -132 -170 -127 -259 -316 -258
-548 1 -225 101 -437 260 -553 67 -49 197 -113 267 -132 77 -21 221 -21 307
-1 253 59 474 266 533 501 20 80 20 291 0 370 -45 173 -176 334 -343 423 -160
85 -359 113 -510 72z"/>
<path d="M2932 18585 c-83 -23 -241 -109 -303 -164 -151 -135 -242 -371 -225
-582 17 -211 108 -382 263 -496 138 -102 245 -138 413 -137 208 0 374 67 516
208 96 96 141 179 179 330 29 114 31 189 9 289 -53 237 -238 441 -484 532 -63
24 -94 28 -195 31 -85 3 -135 0 -173 -11z"/>
<path d="M14225 17606 c-562 -93 -1006 -419 -1260 -923 -193 -385 -237 -830
-118 -1207 41 -130 109 -296 158 -386 336 -606 1101 -951 1810 -815 274 52
598 218 807 415 147 137 256 284 347 467 244 490 253 1060 26 1514 -240 477
-668 804 -1202 920 -126 27 -445 35 -568 15z"/>
<path d="M10200 17578 c-382 -66 -731 -267 -972 -558 -379 -456 -505 -1084
-326 -1624 38 -116 131 -308 198 -411 267 -407 710 -673 1223 -736 134 -16
402 -6 528 20 361 74 727 293 951 568 270 332 413 755 395 1173 -10 248 -58
425 -178 665 -96 192 -183 318 -305 439 -249 249 -586 415 -959 471 -146 22
-410 19 -555 -7z"/>
<path d="M6555 16885 c-272 -42 -499 -157 -676 -342 -146 -153 -222 -317 -254
-547 -44 -315 65 -611 308 -842 217 -207 455 -289 762 -265 149 12 272 45 375
103 279 155 482 448 546 785 20 109 15 196 -21 318 -111 382 -425 681 -812
775 -112 27 -139 28 -228 15z"/>
<path d="M18170 16885 c-192 -43 -384 -150 -516 -286 -236 -245 -328 -614
-239 -964 46 -181 158 -369 281 -471 241 -200 488 -285 742 -256 483 55 868
413 921 858 14 112 -1 328 -29 419 -99 322 -367 577 -716 681 -112 33 -338 43
-444 19z"/>
<path d="M16250 14179 c-575 -71 -1031 -397 -1290 -924 -204 -414 -242 -856
-109 -1273 37 -114 148 -333 231 -455 248 -361 669 -613 1153 -688 105 -16
389 -17 490 -1 258 42 470 126 686 271 409 275 665 701 728 1211 31 249 -4
556 -90 780 -60 158 -202 392 -321 530 -236 275 -594 468 -993 536 -110 18
-383 26 -485 13z"/>
<path d="M8370 14169 c-228 -22 -484 -101 -665 -205 -541 -311 -888 -941 -861
-1559 11 -243 56 -414 176 -662 137 -285 299 -473 551 -641 402 -269 949 -360
1422 -237 249 65 441 170 657 359 284 248 462 558 541 946 21 100 24 143 24
325 0 224 -9 294 -61 472 -51 177 -156 386 -272 543 -78 105 -240 262 -352
342 -180 128 -441 242 -660 288 -176 36 -332 45 -500 29z"/>
<path d="M21215 13375 c-244 -44 -460 -187 -604 -398 -51 -76 -117 -224 -140
-317 -12 -46 -24 -128 -28 -181 l-6 -97 65 -133 c86 -175 149 -269 246 -361
90 -86 189 -145 307 -185 72 -24 95 -27 230 -27 128 -1 162 2 229 22 329 95
565 334 622 628 18 96 18 289 0 374 -68 318 -341 577 -707 670 -88 23 -116 23
-214 5z"/>
<path d="M3531 13315 c-345 -78 -562 -284 -654 -619 -18 -68 -22 -106 -22
-241 0 -155 2 -163 33 -255 55 -157 111 -239 250 -363 99 -88 201 -145 318
-179 107 -30 312 -32 424 -4 343 87 551 301 642 661 27 104 21 274 -12 380
-92 292 -322 519 -616 606 -91 27 -274 34 -363 14z"/>
<path d="M24270 13047 c-81 -29 -199 -106 -246 -160 -117 -138 -153 -354 -90
-552 53 -167 156 -277 309 -331 56 -20 255 -28 325 -14 250 51 453 326 428
580 -8 72 -52 191 -98 262 -64 101 -190 189 -318 223 -87 23 -232 19 -310 -8z"/>
<path d="M411 13004 c-221 -59 -390 -271 -407 -511 -10 -134 23 -236 118 -365
79 -107 170 -167 297 -194 86 -18 144 -18 239 2 207 42 369 184 418 369 22 79
29 233 14 296 -44 190 -211 352 -415 404 -74 19 -193 18 -264 -1z"/>
<path d="M10455 10753 c-166 -7 -399 -59 -565 -126 -527 -214 -933 -716 -1031
-1277 -27 -152 -29 -423 -5 -560 48 -273 152 -513 320 -738 259 -346 591 -555
1031 -648 117 -25 150 -28 335 -29 180 0 218 3 310 23 503 113 930 436 1178
892 169 310 228 692 166 1060 -137 809 -915 1436 -1739 1403z"/>
<path d="M14235 10744 c-255 -46 -516 -154 -725 -302 -188 -133 -396 -366
-507 -570 -84 -152 -157 -374 -194 -592 -16 -95 -16 -342 0 -440 64 -380 218
-683 485 -959 259 -266 541 -413 915 -477 449 -76 865 19 1243 286 103 72 284
242 357 335 173 217 291 468 343 728 19 95 23 143 22 317 -1 283 -33 448 -129
665 -233 522 -732 910 -1292 1005 -139 24 -395 26 -518 4z"/>
<path d="M18310 10114 c-129 -20 -178 -31 -257 -60 -121 -44 -194 -81 -270
-138 -387 -291 -500 -898 -247 -1330 128 -218 411 -412 669 -457 109 -19 311
-7 420 25 367 108 639 376 726 716 25 96 35 291 20 394 -15 103 -62 243 -113
332 -165 290 -500 498 -833 517 -49 3 -101 3 -115 1z"/>
<path d="M6460 10076 c-112 -20 -157 -34 -248 -77 -411 -191 -660 -703 -557
-1146 37 -159 108 -289 238 -435 224 -253 548 -362 898 -302 300 51 550 216
689 454 49 83 118 273 136 370 84 467 -247 971 -732 1116 -109 32 -303 41
-424 20z"/>
<path d="M21730 7775 c-96 -26 -212 -90 -283 -156 -154 -141 -234 -302 -244
-494 -7 -128 10 -200 78 -342 44 -92 63 -119 128 -184 61 -61 95 -85 171 -123
127 -62 212 -79 365 -73 200 8 327 67 470 219 83 88 135 182 156 283 16 79 16
250 -1 403 l-13 122 -106 103 c-128 123 -222 189 -318 222 -94 33 -316 44
-403 20z"/>
<path d="M2975 7746 c-190 -45 -382 -190 -468 -353 -55 -105 -79 -206 -79
-338 -2 -286 127 -500 377 -625 105 -53 179 -70 296 -70 168 0 332 57 462 161
169 136 257 325 257 553 0 171 -66 322 -200 457 -96 97 -187 154 -315 195 -99
32 -241 40 -330 20z"/>
<path d="M12275 6695 c-80 -15 -233 -69 -321 -113 -115 -58 -238 -166 -314
-277 -80 -117 -149 -295 -170 -444 -15 -103 -8 -320 14 -409 59 -237 190 -427
386 -559 220 -147 365 -191 598 -180 251 12 484 113 670 291 102 98 160 176
211 288 60 129 73 191 78 379 6 188 -7 277 -58 409 -160 415 -660 696 -1094
615z"/>
<path d="M16735 5714 c-92 -19 -275 -111 -359 -180 -343 -283 -397 -843 -115
-1192 57 -70 206 -190 289 -232 117 -59 191 -75 350 -75 112 1 160 5 210 20
328 95 566 325 637 613 24 97 24 334 -1 421 -87 315 -351 554 -689 626 -85 19
-230 18 -322 -1z"/>
<path d="M7935 5692 c-98 -25 -256 -97 -323 -147 -81 -59 -170 -160 -221 -250
-80 -139 -136 -343 -143 -516 -3 -73 -2 -77 59 -200 134 -273 315 -453 524
-523 117 -39 292 -53 414 -32 336 57 604 300 686 624 18 71 20 106 17 240 -3
140 -7 166 -31 237 -91 262 -321 476 -597 555 -106 31 -290 36 -385 12z"/>
<path d="M18378 2726 c-280 -99 -467 -377 -430 -641 23 -165 142 -335 282
-403 205 -101 452 -71 637 77 177 142 235 439 126 645 -38 71 -154 184 -241
236 -72 43 -248 110 -287 110 -11 0 -50 -11 -87 -24z"/>
<path d="M6388 2672 c-155 -52 -280 -178 -374 -376 -53 -112 -55 -145 -14
-266 46 -140 144 -268 266 -349 98 -66 184 -93 294 -93 103 -1 176 22 283 87
168 102 250 249 250 450 1 254 -137 463 -353 535 -94 32 -274 37 -352 12z"/>
<path d="M12306 2333 c-176 -37 -324 -132 -422 -269 -53 -73 -68 -108 -105
-238 -61 -209 -27 -394 107 -582 210 -297 604 -379 922 -193 31 19 104 81 162
139 l105 105 47 184 47 184 -35 116 c-62 207 -142 345 -242 420 -73 55 -209
119 -288 136 -87 18 -208 18 -298 -2z"/>
</g>
</svg>
